<?xml version="1.0" encoding="UTF-8" standalone="no"?>
<!DOCTYPE svg PUBLIC "-//W3C//DTD SVG 1.1//EN" "http://www.w3.org/Graphics/SVG/1.1/DTD/svg11.dtd">
<svg width="100%" height="100%" viewBox="0 0 24 24" version="1.1" xmlns="http://www.w3.org/2000/svg" xmlns:xlink="http://www.w3.org/1999/xlink" xml:space="preserve" xmlns:serif="http://www.serif.com/" style="fill-rule:evenodd;clip-rule:evenodd;stroke-linejoin:round;stroke-miterlimit:2;">
    <g transform="matrix(0.98208,0,0,1.06743,-0.146532,-0.634348)">
        <path d="M13.375,18.805C12.328,19.308 9.86,19.46 8.623,19.279C4.862,18.729 2.733,16.085 2.733,11.981C2.733,7.876 4.822,5.068 9.659,4.62C10.904,4.505 12.284,4.777 13.331,5.28L13.375,18.805Z" style="fill:rgb(247,246,251);"/>
    </g>
    <g transform="matrix(1,0,0,1,1.25e-06,0)">
        <path d="M2.286,14.5L1.556,14.67L2.286,14.5ZM2.286,9.5L3.017,9.67L2.286,9.5ZM17.53,9.5L16.799,9.67L17.53,9.5ZM17.53,14.5L16.799,14.33L17.53,14.5ZM12.276,19.723L12.103,18.993L12.276,19.723ZM7.541,19.723L7.713,18.993L7.541,19.723ZM7.541,4.277L7.713,5.007L7.541,4.277ZM12.276,4.277L12.103,5.007L12.276,4.277ZM7.304,19.667L7.131,20.397L7.131,20.397L7.304,19.667ZM12.513,19.667L12.686,20.397L12.513,19.667ZM12.513,4.333L12.686,3.603L12.513,4.333ZM7.304,4.333L7.131,3.603L7.304,4.333ZM17.2,15.55L16.504,15.271L16.093,16.298L17.199,16.3L17.2,15.55ZM18.643,15.55L18.643,16.3L18.643,15.55ZM21.931,12.731L22.668,12.872L21.931,12.731ZM21.931,11.269L22.668,11.128L21.931,11.269ZM17.2,8.45L17.199,7.7L16.093,7.702L16.504,8.729L17.2,8.45ZM12.072,10.225C12.072,9.811 11.737,9.475 11.322,9.475C10.908,9.475 10.572,9.811 10.572,10.225L12.072,10.225ZM10.572,13.775C10.572,14.189 10.908,14.525 11.322,14.525C11.737,14.525 12.072,14.189 12.072,13.775L10.572,13.775ZM8.678,10.58C8.678,10.166 8.342,9.83 7.928,9.83C7.514,9.83 7.178,10.166 7.178,10.58L8.678,10.58ZM7.178,13.42C7.178,13.834 7.514,14.17 7.928,14.17C8.342,14.17 8.678,13.834 8.678,13.42L7.178,13.42ZM7.476,5.063L7.713,5.007L7.368,3.547L7.131,3.603L7.476,5.063ZM12.103,5.007L12.34,5.063L12.686,3.603L12.449,3.547L12.103,5.007ZM12.34,18.937L12.103,18.993L12.449,20.453L12.686,20.397L12.34,18.937ZM7.713,18.993L7.476,18.937L7.131,20.397L7.368,20.453L7.713,18.993ZM3.017,14.33C2.661,12.799 2.661,11.201 3.017,9.67L1.556,9.33C1.148,11.085 1.148,12.915 1.556,14.67L3.017,14.33ZM16.799,9.67C17.155,11.201 17.155,12.799 16.799,14.33L18.261,14.67C18.668,12.915 18.668,11.085 18.261,9.33L16.799,9.67ZM12.103,18.993C10.658,19.336 9.158,19.336 7.713,18.993L7.368,20.453C9.04,20.849 10.776,20.849 12.449,20.453L12.103,18.993ZM7.713,5.007C9.158,4.664 10.658,4.664 12.103,5.007L12.449,3.547C10.776,3.151 9.04,3.151 7.368,3.547L7.713,5.007ZM7.476,18.937C5.293,18.42 3.555,16.646 3.017,14.33L1.556,14.67C2.216,17.512 4.365,19.741 7.131,20.397L7.476,18.937ZM12.686,20.397C15.452,19.741 17.6,17.512 18.261,14.67L16.799,14.33C16.261,16.646 14.523,18.42 12.34,18.937L12.686,20.397ZM12.34,5.063C14.523,5.58 16.262,7.354 16.799,9.67L18.261,9.33C17.6,6.488 15.451,4.258 12.686,3.603L12.34,5.063ZM7.131,3.603C4.365,4.258 2.216,6.488 1.556,9.33L3.017,9.67C3.555,7.354 5.293,5.58 7.476,5.063L7.131,3.603ZM17.199,16.3C17.31,16.3 17.426,16.3 17.545,16.3L17.545,14.8C17.426,14.8 17.312,14.8 17.202,14.8L17.199,16.3ZM17.545,16.3L18.643,16.3L18.643,14.8L17.545,14.8L17.545,16.3ZM18.643,16.3C20.624,16.3 22.291,14.841 22.668,12.872L21.194,12.59C20.944,13.899 19.858,14.8 18.643,14.8L18.643,16.3ZM22.668,12.872C22.778,12.296 22.778,11.704 22.668,11.128L21.194,11.41C21.269,11.799 21.269,12.201 21.194,12.59L22.668,12.872ZM22.668,11.128C22.291,9.159 20.624,7.7 18.643,7.7L18.643,9.2C19.858,9.2 20.944,10.101 21.194,11.41L22.668,11.128ZM18.643,7.7L17.545,7.7L17.545,9.2L18.643,9.2L18.643,7.7ZM17.545,7.7C17.426,7.7 17.31,7.7 17.199,7.7L17.202,9.2C17.312,9.2 17.426,9.2 17.545,9.2L17.545,7.7ZM16.504,8.729C16.625,9.03 16.724,9.345 16.799,9.67L18.261,9.33C18.168,8.931 18.046,8.544 17.897,8.171L16.504,8.729ZM16.799,14.33C16.724,14.655 16.625,14.97 16.504,15.271L17.897,15.829C18.046,15.456 18.168,15.069 18.261,14.67L16.799,14.33ZM10.572,10.225L10.572,13.775L12.072,13.775L12.072,10.225L10.572,10.225ZM7.178,10.58L7.178,13.42L8.678,13.42L8.678,10.58L7.178,10.58Z" style="fill:rgb(1,2,25);fill-rule:nonzero;"/>
    </g>
    <g transform="matrix(1,0,0,1,0.179393,-0.0447078)">
        <rect x="6.1" y="8.461" width="6.597" height="7.09" style="fill:rgb(247,246,251);"/>
    </g>
</svg>
