<svg fill="none" height="24" viewBox="0 0 24 24" width="24" xmlns="http://www.w3.org/2000/svg"><g fill="#010219"><path d="m3.83327 15.2485.73105-.1676zm0-5.89527.73105.16755zm16.33343 0-.731.16756zm0 5.89527-.731-.1676zm-5.2866 5.4104.1751.7293zm-5.76024 0 .17507-.7293zm-.00001-16.71611.17508.72928zm5.76025 0 .1751-.72928zm-6.06002-.94279c0-.41421-.33579-.75-.75-.75s-.75.33579-.75.75zm-1.5 2.51375c0 .41421.33579.75.75.75s.75-.33579.75-.75zm9.35982-2.51375c0-.41421-.3358-.75-.75-.75s-.75.33579-.75.75zm-1.5 2.51375c0 .41421.3358.75.75.75s.75-.33579.75-.75zm-10.61558 9.56715c-.41909-1.8285-.41909-3.7316 0-5.56012l-1.46209-.3351c-.46964 2.04902-.46964 4.18132 0 6.23032zm14.87138-5.56011c.4191 1.82851.4191 3.73161 0 5.56011l1.4621.3351c.4696-2.049.4696-4.1813 0-6.23032zm-4.7306 10.40881c-1.7793.4272-3.6309.4272-5.41017 0l-.35015 1.4586c2.00942.4824 4.10102.4824 6.11042 0zm-5.41017-15.25753c1.77927-.42714 3.63087-.42714 5.41017 0l.3501-1.45856c-2.0094-.4824-4.101-.4824-6.11042 0zm0 15.25753c-2.33886-.5614-4.17724-2.4343-4.73061-4.8487l-1.46209.3351c.67723 2.9548 2.93516 5.2742 5.84255 5.9722zm5.76027 1.4586c2.9074-.698 5.1653-3.0174 5.8426-5.9722l-1.4621-.3351c-.5534 2.4144-2.3918 4.2873-4.7306 4.8487zm-.3501-16.71613c2.3388.56148 4.1772 2.43435 4.7306 4.84872l1.4621-.33511c-.6773-2.95479-2.9352-5.27421-5.8426-5.97217zm-5.76032-1.45856c-2.90739.69796-5.16532 3.01738-5.84255 5.97217l1.46209.3351c.55337-2.41437 2.39175-4.28723 4.73061-4.84871zm-4.80462 5.81535h15.71964v-1.5h-15.71964zm3.17992-6.02886v2.51375h1.5v-2.51375zm7.85982 0v2.51375h1.5v-2.51375z"/><path d="m13.442 13.924c.405-.288.657-.72.657-1.305 0-1.215-.936-1.845-2.043-1.845s-2.052.63-2.052 1.845c0 .585.261 1.017.657 1.305-.549.333-.864.882-.864 1.521 0 1.161.855 1.881 2.259 1.881 1.395 0 2.259-.72 2.259-1.881 0-.639-.315-1.188-.873-1.521zm-1.386-1.98c.468 0 .81.27.81.738 0 .459-.342.747-.81.747s-.81-.288-.81-.747c0-.468.342-.738.81-.738zm0 4.212c-.594 0-1.026-.306-1.026-.873 0-.558.432-.864 1.026-.864s1.026.306 1.026.864c0 .567-.432.873-1.026.873z"/></g></svg>