<svg fill="none" height="24" viewBox="0 0 24 24" width="24" xmlns="http://www.w3.org/2000/svg"><path d="m3.9074 8.65134-.64727-.37888zm16.1852 0 .6473-.37888zm0 6.69736-.6473-.3789zm-16.1852 0 .64726-.3789zm.64726-6.31849c3.34058-5.70695 11.55014-5.70695 14.89064 0l1.2946-.75775c-3.9199-6.69661-13.5599-6.69661-17.47977 0zm14.89064 0c1.0729 1.83289 1.0729 4.10669 0 5.93959l1.2946.7577c1.3468-2.3009 1.3468-5.1541 0-7.45504zm0 5.93959c-3.3405 5.7069-11.55007 5.7069-14.89064 0l-1.29453.7577c3.91987 6.6967 13.55987 6.6967 17.47977 0zm-14.89064 0c-1.07288-1.8329-1.07288-4.1067 0-5.93959l-1.29453-.75775c-1.34684 2.30094-1.34684 5.15414 0 7.45504zm10.25204-2.9091c0 1.5921-1.268 2.8626-2.8073 2.8626v1.5c2.3893 0 4.3073-1.9638 4.3073-4.3626zm-2.8073 2.8626c-1.5389 0-2.80609-1.2702-2.80609-2.8626h-1.5c0 2.3985 1.91657 4.3626 4.30609 4.3626zm-2.80609-2.8626c0-1.5937 1.26729-2.86371 2.80609-2.86371v-1.5c-2.38967 0-4.30609 1.96426-4.30609 4.36371zm2.80609-2.86371c1.5391 0 2.8073 1.27031 2.8073 2.86371h1.5c0-2.39976-1.9179-4.36371-4.3073-4.36371z" fill="#010219"/></svg>