<svg fill="none" height="24" viewBox="0 0 24 24" width="24" xmlns="http://www.w3.org/2000/svg"><path d="m20.7399 8.27246c-.2093-.35748-.6687-.47764-1.0262-.26839-.3574.20925-.4776.66867-.2684 1.02614zm-.6473 7.07624-.6473-.3789zm-10.92796 3.4289c-.39166-.1349-.81845.0734-.95327.465-.13481.3917.07341.8185.46508.9533zm-5.25724-3.4289.64726-.3789zm0-6.69737.64726.37888zm10.0088 1.31698c.2998.28589.7745.27459 1.0604-.02513.2858-.29975.2746-.77449-.0252-1.06036zm-5.173 4.94739c.26914.3148.74257.3519 1.05742.0828.31488-.2692.35188-.7426.08278-1.0575zm7.5635-2.855c0-.4142-.3358-.75-.75-.75s-.75.3358-.75.75zm-4.3073 2.8626c-.4142 0-.75.3358-.75.75s.3358.75.75.75zm8.4101-10.39716c.2906-.29519.2868-.77005-.0084-1.06063s-.77-.28684-1.0606.00835zm-16.25649 14.37626c-.29058.2952-.28684.7701.00835 1.0607.29519.2905.77005.2868 1.06063-.0084zm15.29229-9.87219c1.0729 1.83289 1.0729 4.10669 0 5.93959l1.2946.7577c1.3468-2.3009 1.3468-5.1541 0-7.45504zm0 5.93959c-2.2236 3.7988-6.6049 5.0729-10.28066 3.8078l-.48819 1.4183c4.29795 1.4793 9.45095-.0052 12.06345-4.4684zm-14.89064 0c-1.07288-1.8329-1.07288-4.1067 0-5.93959l-1.29453-.75775c-1.34684 2.30094-1.34684 5.15414 0 7.45504zm1.89789 2.269c-.72521-.613-1.37074-1.3684-1.89789-2.269l-1.29453.7577c.61302 1.0473 1.3688 1.9339 2.22402 2.6568zm-1.89789-8.20859c2.71358-4.63581 8.64704-5.51025 12.56854-2.60494l.893-1.20527c-4.5989-3.40707-11.56698-2.3957-14.75607 3.05246zm4.63865 3.03049c0-1.5937 1.26729-2.86371 2.80609-2.86371v-1.5c-2.38967 0-4.30609 1.96426-4.30609 4.36371zm2.80609-2.86371c.7398 0 1.4132.29103 1.9168.77132l1.0352-1.08549c-.7692-.73357-1.8085-1.18583-2.952-1.18583zm-2.116 4.74401c-.42938-.5023-.69009-1.1585-.69009-1.8803h-1.5c0 1.0898.39533 2.0893 1.04989 2.855zm4.9233-1.8803c0 1.5921-1.268 2.8626-2.8073 2.8626v1.5c2.3893 0 4.3073-1.9638 4.3073-4.3626zm4.5338-8.58684-15.18749 15.42854 1.06898 1.0523 15.18751-15.42856z" fill="#010219"/></svg>