<svg fill="none" height="24" viewBox="0 0 24 24" width="24" xmlns="http://www.w3.org/2000/svg"><path d="m4.6531 17.0263-.69471.2826zm-.34701-5.6292.72397.1959zm15.38781 0-.724.1959zm-.347 5.6292.6947.2826zm-5.3104 3.8155-.1159-.741zm-4.07298 0 .11588-.741zm-1.30733-13.23967-.14947-.73495zm6.68761 0 .1495-.73495zm-6.12901 13.12257-.11589.741zm-4.46881-3.4701.69471-.2826zm10.03922 3.4701.1159.741zm4.4688-3.4701-.6947-.2826zm-3.6341-9.59631-.1494.73495zm-7.23981 0 .14947.73495zm-1.48612-.2277c0 .41422.33579.75.75.75.41422 0 .75-.33578.75-.75zm.75-.30288h-.75zm8.71203.00001h-.75zm-.75.30288c0 .41421.3358.75.75.75s.75-.33579.75-.75zm-4.7543-4.28934-.182-.72758zm2.2965 0 .182-.72758zm-4.61864 5.25198.27611-.05615-.29895-1.46991-.2761.05615zm6.66474-.05615.2762.05615.2989-1.46991-.2761-.05615zm-.525 11.64661-.7487.1171.2317 1.482.7488-.1171zm-4.5899.1171-.74872-.1171-.23178 1.482.74872.1171zm8.5728-3.3571-.0929.2283 1.3894.5653.0929-.2284zm-13.21151.2283-.09289-.2283-1.38941.5652.09289.2284zm-.09288-.2283c-.6684-1.6429-.77923-3.4449-.31775-5.1507l-1.44794-.3917c-.54747 2.0235-.41542 4.1617.37627 6.1076zm13.62209-5.1507c.4615 1.7057.3507 3.5078-.3177 5.1507l1.3894.5652c.7917-1.9459.9238-4.0841.3763-6.1077zm-5.0493 8.5078c-1.272.1989-2.5692.1989-3.8412 0l-.23178 1.482c1.42558.2229 2.87918.2229 4.30468 0zm-5.11493-11.76371c2.10613-.42834 4.28253-.42834 6.38863 0l.299-1.46991c-2.3034-.46846-4.6832-.46846-6.98658 0zm.52501 11.64661c-1.7744-.2775-3.24702-1.4313-3.88999-3.0117l-1.38941.5653c.84948 2.088 2.77505 3.5729 5.04762 3.9284zm5.57042 1.482c2.2725-.3555 4.1981-1.8404 5.0476-3.9284l-1.3894-.5653c-.643 1.5804-2.1156 2.7342-3.89 3.0117zm.5694-13.07246c1.7207.34996 3.0663 1.59888 3.4994 3.19976l1.448-.3918c-.5881-2.17354-2.3974-3.82005-4.6485-4.27787zm-7.23988-1.46991c-2.2511.45782-4.06044 2.10433-4.6485 4.27797l1.44794.3917c.43311-1.60088 1.77877-2.8498 3.4995-3.19976zm.16335.50726v-.30288h-1.5v.30288zm7.21203-.30287v.30288h1.5v-.30288zm-4.5723-3.25888c.6335-.15845 1.2991-.15845 1.9325 0l.364-1.45516c-.8724-.21824-1.788-.21824-2.6605 0zm6.0723 3.25888c0-2.2379-1.571-4.16253-3.7758-4.71404l-.364 1.45516c1.5737.39366 2.6398 1.74624 2.6398 3.25888zm-8.71203-.00001c0-1.51263 1.06605-2.86521 2.63973-3.25887l-.364-1.45516c-2.20473.55151-3.77573 2.47614-3.77573 4.71403z" fill="#363853"/><path d="m12 13.5v2" stroke="#010219" stroke-linecap="round" stroke-width="1.5"/></svg>