<?xml version="1.0" encoding="UTF-8" standalone="no"?>
<!DOCTYPE svg PUBLIC "-//W3C//DTD SVG 1.1//EN" "http://www.w3.org/Graphics/SVG/1.1/DTD/svg11.dtd">
<svg width="100%" height="100%" viewBox="0 0 24 24" version="1.1" xmlns="http://www.w3.org/2000/svg" xmlns:xlink="http://www.w3.org/1999/xlink" xml:space="preserve" xmlns:serif="http://www.serif.com/" style="fill-rule:evenodd;clip-rule:evenodd;stroke-linejoin:round;stroke-miterlimit:2;">
    <g>
        <path d="M9.055,12C9.055,12.552 8.595,13 8.027,13C7.46,13 7,12.552 7,12C7,11.448 7.46,11 8.027,11C8.595,11 9.055,11.448 9.055,12Z" style="fill:rgb(1,2,25);fill-rule:nonzero;"/>
        <path d="M13.027,12C13.027,12.552 12.567,13 12,13C11.433,13 10.973,12.552 10.973,12C10.973,11.448 11.433,11 12,11C12.567,11 13.027,11.448 13.027,12Z" style="fill:rgb(1,2,25);fill-rule:nonzero;"/>
        <path d="M17,12C17,12.552 16.54,13 15.973,13C15.405,13 14.945,12.552 14.945,12C14.945,11.448 15.405,11 15.973,11C16.54,11 17,11.448 17,12Z" style="fill:rgb(1,2,25);fill-rule:nonzero;"/>
    </g>
</svg>
