<svg fill="none" height="24" viewBox="0 0 24 24" width="24" xmlns="http://www.w3.org/2000/svg"><path d="m12 3v1.00474m-2.9909 13.89866c1.9877.2235 3.9941.2235 5.9818 0-.0141.1933-.0444.3853-.0908.5738l-.0819.3334c-.2568 1.0444-1.0727 1.8572-2.1143 2.1064-.4628.1107-.945.1107-1.4078 0-1.0416-.2492-1.85747-1.062-2.11428-2.1064l-.08197-.3334c-.04635-.1885-.07668-.3805-.09075-.5738zm-2.9813-9.27081c.55432-2.04585 2.12221-3.67934 4.1306-4.33036 1.2343-.40012 2.5765-.40078 3.8087.00615 1.9727.65152 3.4829 2.26246 4.0122 4.27997l.5832 2.22285.4673 2.1163c.1439.6518.3398 1.3223.443 1.9819.0179.1143.0272.2316.0272.351 0 1.0662-.7475 1.9849-1.7876 2.1968l-.3676.0748c-3.5273.7186-7.1623.7186-10.68962 0l-.36759-.0748c-1.04004-.2119-1.78759-1.1306-1.78759-2.1968 0-.1194.00929-.2367.02719-.351.10324-.6596.29907-1.3301.44301-1.9819l.4673-2.1163z" stroke="#010219" stroke-linecap="round" stroke-width="1.5"/></svg>