<svg fill="none" height="24" viewBox="0 0 24 24" width="24" xmlns="http://www.w3.org/2000/svg"><g stroke="#010219" stroke-width="1.5"><path d="m15.8754 19.4874.1805-.1249c.565-.3906.8476-.586 1.1003-.7955 1.3732-1.1381 2.2956-2.7246 2.6026-4.4765.0565-.3224.0858-.6634.1445-1.3456l.0304-.3527c.0972-1.129.0875-2.2647-.0289-3.39197l-.0361-.34884c-.2037-1.97269-1.4148-3.70168-3.2043-4.57476-2.9423-1.43551-6.3865-1.43551-9.32881 0-1.78951.87308-3.00055 2.60207-3.20432 4.57476l-.03603.34884c-.11644 1.12727-.12613 2.26297-.02894 3.39197l.03036.3527c.05871.6822.08807 1.0232.14457 1.3456.30698 1.7519 1.22932 3.3384 2.60257 4.4765.25272.2095.5353.4049 1.10026.7956l.18055.1248c.76812.5311 1.15221.7968 1.53714.9813 1.47755.7084 3.19895.7084 4.67645 0 .385-.1845.7691-.4501 1.5372-.9813z"/><path d="m13.7678 10.2322-3.5356 3.5355m3.5356 0-3.5356-3.5355" stroke-linecap="round"/></g></svg>