<?xml version="1.0" encoding="UTF-8" standalone="no"?>
<!DOCTYPE svg PUBLIC "-//W3C//DTD SVG 1.1//EN" "http://www.w3.org/Graphics/SVG/1.1/DTD/svg11.dtd">
<svg width="100%" height="100%" viewBox="0 0 24 24" version="1.1" xmlns="http://www.w3.org/2000/svg" xmlns:xlink="http://www.w3.org/1999/xlink" xml:space="preserve" xmlns:serif="http://www.serif.com/" style="fill-rule:evenodd;clip-rule:evenodd;">
    <g transform="matrix(6.12323e-17,1,-1,6.12323e-17,24,-5.15932e-06)">
        <path d="M15.875,19.487L16.056,19.363C16.621,18.972 16.904,18.777 17.156,18.567C18.529,17.429 19.452,15.842 19.759,14.091C19.815,13.768 19.845,13.427 19.903,12.745L19.934,12.392C20.031,11.263 20.021,10.128 19.905,9L19.869,8.651C19.665,6.679 18.454,4.95 16.664,4.077C13.722,2.641 10.278,2.641 7.336,4.077C5.546,4.95 4.335,6.679 4.131,8.651L4.095,9C3.979,10.128 3.969,11.263 4.066,12.392L4.097,12.745C4.155,13.427 4.185,13.768 4.241,14.091C4.548,15.842 5.471,17.429 6.844,18.567C7.097,18.777 7.379,18.972 7.944,19.363L8.125,19.487C8.893,20.019 9.277,20.284 9.662,20.469C11.139,21.177 12.861,21.177 14.338,20.469C14.723,20.284 15.107,20.019 15.875,19.487Z" style="fill:none;fill-rule:nonzero;stroke:rgb(1,2,25);stroke-width:1.5px;"/>
    </g>
</svg>
