<svg fill="none" height="24" viewBox="0 0 24 24" width="24" xmlns="http://www.w3.org/2000/svg"><path d="m3.35288 15.0496-.73018.1713zm0-6.09917-.73018-.17128zm17.29422.00001-.7302.17127zm0 6.09916-.7302-.1713zm-5.5975 5.5975-.1713-.7302zm-6.09916 0 .17127-.7302zm-.00001-17.29422.17128.73018zm6.09917 0-.1713.73018zm-7.2005 5.51611c-.29289-.29289-.76776-.29289-1.06066 0-.29289.29289-.29289.76777 0 1.06066zm.50994 1.57061-.53033.5303c.2929.2929.76777.2929 1.06066 0zm2.61086-1.55022c.2929-.2929.2929-.76777 0-1.06066-.2929-.2929-.7677-.2929-1.06064 0zm2.0704.28008c-.4142 0-.75.33578-.75.75 0 .41424.3358.75004.75.75004zm3.6409 1.50004c.4142 0 .75-.3358.75-.75004 0-.41422-.3358-.75-.75-.75zm-8.8321 3.4009c-.29289-.2929-.76776-.2929-1.06066 0-.29289.2928-.29289.7677 0 1.0606zm.50994 1.5706-.53033.5303c.2929.2929.76777.2929 1.06066 0zm2.61086-1.5503c.2929-.2929.2929-.7677 0-1.0606s-.7677-.2929-1.06064 0zm2.0704.2801c-.4142 0-.75.3358-.75.75s.3358.75.75.75zm3.6409 1.5c.4142 0 .75-.3358.75-.75s-.3358-.75-.75-.75zm-12.59814-.9925c-.44408-1.8932-.44408-3.8634 0-5.75659l-1.46036-.34256c-.49693 2.11845-.49693 4.32325 0 6.44175zm15.83384-5.75659c.4441 1.89319.4441 3.86339 0 5.75659l1.4604.3425c.4969-2.1184.4969-4.3232 0-6.44164zm-5.0386 10.79519c-1.8932.4441-3.8634.4441-5.75659 0l-.34255 1.4604c2.11844.4969 4.32324.4969 6.44164 0zm-5.75659-15.83384c1.89319-.44408 3.86339-.44408 5.75659 0l.3425-1.46036c-2.1184-.49693-4.3232-.49693-6.44164 0zm0 15.83384c-2.5001-.5864-4.45221-2.5385-5.03865-5.0386l-1.46036.3426c.71654 3.0547 3.10171 5.4399 6.15646 6.1564zm6.09909 1.4604c3.0548-.7165 5.44-3.1017 6.1565-6.1565l-1.4604-.3425c-.5864 2.5001-2.5385 4.4522-5.0386 5.0386zm-.3425-17.29424c2.5001.58644 4.4522 2.53855 5.0386 5.03865l1.4604-.34255c-.7165-3.05475-3.1017-5.43992-6.1565-6.15646zm-6.09914-1.46036c-3.05475.71654-5.43992 3.10171-6.15646 6.15645l1.46036.34256c.58644-2.50011 2.53855-4.45221 5.03865-5.03865zm-1.99072 7.30695 1.04027 1.04025 1.06066-1.06064-1.04027-1.04027zm2.10093 1.04025 2.08053-2.08052-1.06064-1.06066-2.08055 2.08054zm4.15093-.3004h3.6409v-1.50004h-3.6409zm-6.25186 4.4615 1.04027 1.0403 1.06066-1.0607-1.04027-1.0402zm2.10093 1.0403 2.08053-2.0806-1.06064-1.0606-2.08055 2.0805zm4.15093-.3005h3.6409v-1.5h-3.6409z" fill="#ffffff"/></svg>