<svg fill="none" height="24" viewBox="0 0 24 24" width="24" xmlns="http://www.w3.org/2000/svg"><g stroke="#ffffff" stroke-width="1.5"><path d="m20.4445 6.88859c-1.6666.55551-3.8886-1.66654-3.3331-3.33308m-.1348.13479-3.5904 3.59043c-1.5609 1.5609-2.6682 3.51667-3.2036 5.65817l-.1735.694c-.05407.2162.1418.4121.358.358l.694-.1735c2.1415-.5354 4.0973-1.6427 5.6582-3.2036l3.5904-3.59042c.442-.44199.6903-1.04146.6903-1.66654 0-1.30165-1.0552-2.35684-2.3568-2.35684-.6251 0-1.2246.24831-1.6666.6903z"/><path d="m12 3c-1.0233 0-2.04666.11763-3.04957.35288-2.77742.65149-4.94606 2.82013-5.59755 5.59755-.47051 2.00587-.47051 4.09327 0 6.09917.65149 2.7774 2.82013 4.946 5.59756 5.5975 2.00586.4705 4.09326.4705 6.09916 0 2.7774-.6515 4.946-2.8201 5.5975-5.5975.2353-1.003.3529-2.0263.3529-3.0496" stroke-linecap="round"/></g></svg>