<svg 

fill= "none" height="24" viewBox="0 0 24 24" width="24" xmlns="http://www.w3.org/2000/svg">

<linearGradient id="linear-gradient" gradientTransform="rotate(45)">
    <stop offset="0%" stop-color="#ffafbd"/>
    <stop offset="100%" stop-color="#ffc3a0"/>
  </linearGradient>

<path d="m20.04 9.71903c0-.41421-.3358-.75-.75-.75s-.75.33579-.75.75zm-14.58001 0c0-.41421-.33578-.75-.75-.75-.41421 0-.75.33579-.75.75zm9.05321 10.98807-.1724-.7299zm-5.02647 0 .17243-.7299zm5.34167-15.69287-.5322.52844zm5.6394 6.74397c.2918.2939.7667.2956 1.0606.0037.294-.2918.2957-.7667.0038-1.0606zm-11.29623-6.74397.53221.52844zm-6.70378 5.68707c-.29185.2939-.29017.7688.00376 1.0606.29393.2919.7688.2902 1.06066-.0037zm7.25063 7.619-.73712-.1384zm.01934-.103.73714.1383zm4.52444 0-.7371.1383zm.0194.103.7371-.1384zm-.2898 2.2316-.6772-.3223zm-.794-.0769c-.178.374-.0191.8215.3549.9995s.8215.0191.9995-.3549zm-3.1896.0769-.6772.3223zm-.56042.5677c.17799.374.62552.5329.99952.3549s.5329-.6255.3549-.9995zm1.91332-4.677-.2006-.7227zm1.2778 0 .2006-.7227zm5.9011-6.72357v4.91837h1.5v-4.91837zm-13.08001 4.91837v-4.91837h-1.5v4.91837zm8.88081 5.3398c-1.5397.3637-3.142.3637-4.68164 0l-.34486 1.4598c1.7665.4173 3.6049.4173 5.3714 0zm-4.68164 0c-2.45656-.5803-4.19917-2.7895-4.19917-5.3398h-1.5c0 3.2391 2.21422 6.0578 5.35431 6.7996zm5.02654 1.4598c3.1401-.7418 5.3543-3.5605 5.3543-6.7996h-1.5c0 2.5503-1.7426 4.7595-4.1992 5.3398zm-.3895-15.89433 6.1716 6.21553 1.0644-1.0569-6.1716-6.21552zm-5.65683-1.05689-6.17158 6.21552 1.06442 1.0569 6.17157-6.21553zm6.72123 0c-.6517-.65633-1.1925-1.20332-1.6788-1.57693-.5033-.38674-1.036-.65885-1.6818-.65885v1.5c.1827 0 .3974.06359.7679.34826.3876.2978.8467.75792 1.5283 1.44441zm-5.65682 1.05689c.68162-.68649 1.14072-1.14661 1.52832-1.44441.3705-.28467.5852-.34826.7679-.34826v-1.5c-.6458 0-1.1785.27211-1.6818.65885-.48626.37361-1.02714.9206-1.67883 1.57693zm.75172 12.91603.0194-.1031-1.47426-.2767-.01934.103zm3.0696-.1031.0194.1031 1.4742-.2768-.0193-.103zm-.2105 1.874-.1168.2454 1.3544.6446.1168-.2454zm-3.9836.6446.11678.2454 1.35442-.6446-.1168-.2454zm4.2135-2.4155c.1126.6001.0319 1.2206-.2299 1.7709l1.3544.6446c.3985-.8373.5209-1.7805.3497-2.6923zm-4.5632-.2768c-.17115.9118-.04876 1.855.3497 2.6923l1.3544-.6446c-.2618-.5503-.3425-1.1708-.2298-1.7709zm2.5803-1.0167c.2869-.0796.5899-.0796.8768 0l.4011-1.4453c-.5494-.1525-1.1296-.1525-1.679 0zm3.4378.9137c-.2129-1.134-1.049-2.0508-2.1599-2.359l-.4011 1.4453c.5551.1541.9786.6142 1.0867 1.1904zm-4.5245.2767c.1081-.5762.5316-1.0363 1.0867-1.1904l-.4011-1.4453c-1.1109.3082-1.94701 1.225-2.15986 2.359z" fill="url(#linear-gradient)"/>


</svg>
