<svg fill="none" height="24" viewBox="0 0 24 24" width="24" xmlns="http://www.w3.org/2000/svg"><path d="m18.48 18.5368h2.52m-16.32-6.5368-1.68.044m1.68-.044c0 1.3255 1.07451 2.4 2.4 2.4 1.32548 0 2.4-1.0745 2.4-2.4s-1.07452-2.4-2.4-2.4c-1.32549 0-2.4 1.0745-2.4 2.4zm5.489.0441h10.831m-8.199-6.49286h-9.801m18 0h-2.52m-15.48 12.98556h9.801m5.079.0632c0 1.3255-1.0745 2.4-2.4 2.4s-2.4-1.0745-2.4-2.4 1.0745-2.4 2.4-2.4 2.4 1.0745 2.4 2.4zm0-13.2c0 1.32548-1.0745 2.4-2.4 2.4s-2.4-1.07452-2.4-2.4 1.0745-2.4 2.4-2.4 2.4 1.07452 2.4 2.4z" stroke="#E05C60" stroke-linecap="round" stroke-width="1.5"/></svg>